Simulation
nRows=36
nColumns=15
endheader
time  TH_x TH_y TH_z SC_y  SC_z  SC_x  AC_y  AC_z  AC_x  GH_y  GH_z  GH_yy  EL_x  PS_y
0.75  0.000000  0.000000  0.000000  -33.954460052803014  5.263769542569146  20.661777466321976  59.84796284496305  -3.043180897396743  -10.690933601076807  23.01016980986478  28.555158497161486  -19.4598767586285  19.98566010684556  0.000000
0.765  0.000000  0.000000  0.000000  -34.12885628385709  5.472816496203925  20.890661758814684  59.9493866693423  -2.7177329161560935  -10.54632351536884  23.01372392283893  29.058849481983028  -19.748045700679263  19.781427067851794  0.000000
0.78  0.000000  0.000000  0.000000  -34.300310711952704  5.682183088694144  21.1256389695363  60.04132857997682  -2.3912874924896563  -10.406975001116477  23.024269307177324  29.549050531570497  -20.03530519428849  19.576030585125498  0.000000
0.7949999999999999  0.000000  0.000000  0.000000  -34.46855705905985  5.8920772677298245  21.366795912188195  60.123686926290624  -2.06551870839947  -10.27210367865479  23.04247961002544  30.02590303093166  -20.322245017759155  19.369908625616116  0.000000
0.8099999999999999  0.000000  0.000000  0.000000  -34.632200220167924  6.102358157659659  21.61327596879516  60.19636299048523  -1.7419044217269322  -10.14089262784062  23.068860939411998  30.48954026151078  -20.609269446420228  19.163472356520007  0.000000
0.825  0.000000  0.000000  0.000000  -34.79153093969646  6.313628000799272  21.864842086239282  60.2594223799624  -1.4219487082453932  -10.012328990768241  23.104074030160067  30.940068303812904  -20.897042333205658  18.95743050512982  0.000000
0.84  0.000000  0.000000  0.000000  -34.946133644661785  6.526298161727291  22.120525228552605  60.31320112099709  -1.1070190653958043  -9.885199669808442  23.14826733629239  31.37730906928845  -21.185601233907768  18.752574554625692  0.000000
0.855  0.000000  0.000000  0.000000  -35.09703813151083  6.74068165524789  22.380220281391683  60.358344593410315  -0.7982932773519885  -9.758410171505012  23.20117380268721  31.80113103741503  -21.47466455909099  18.549634576620157  0.000000
0.87  0.000000  0.000000  0.000000  -35.24405914187748  6.956697761826359  22.64290228107304  60.395709422218445  -0.49679898513672544  -9.630940855035178  23.26220982472613  32.211424974467164  -21.763788153382798  18.34923700089248  0.000000
0.885  0.000000  0.000000  0.000000  -35.38813377913744  7.174386779199192  22.908482609103533  60.426133626938814  -0.20349072329118437  -9.501733829341317  23.330432451625338  32.608051720853354  -22.052084604982394  18.151953586529668  0.000000
0.8999999999999999  0.000000  0.000000  0.000000  -35.52888956286639  7.393436170283457  23.175935310137632  60.45053158261974  0.08072079685079708  -9.369939391897871  23.404795376986172  32.99105874047166  -22.338799487874766  17.958324868308416  0.000000
0.9149999999999999  0.000000  0.000000  0.000000  -35.66718905478471  7.6137876664110875  23.44522809248608  60.46987163793005  0.35500606986201805  -9.234761174291316  23.48396166919314  33.360444413713765  -22.62276025401108  17.768934268013894  0.000000
0.9299999999999999  0.000000  0.000000  0.000000  -35.80255328067384  7.835304613108109  23.715374437087842  60.48507305515773  0.6185451958142714  -9.095512012625084  23.56641804760753  33.7162492674751  -22.902801768571816  17.58437792044034  0.000000
0.945  0.000000  0.000000  0.000000  -35.93595703633929  8.057970579352872  23.98629937209571  60.497209877982066  0.8707262091582174  -8.951481734312992  23.650383641417765  34.05853219844168  -23.177380734098808  17.40523495739702  0.000000
0.96  0.000000  0.000000  0.000000  -36.067337962113484  8.281245818246402  24.25691166748042  60.50735113693618  1.1110171115239484  -8.802105364755958  23.734044735375672  34.387656835779886  -23.445081872139312  17.232095737261172  0.000000
0.975  0.000000  0.000000  0.000000  -36.19808747330076  8.504741178625402  24.527125798149317  60.51656771656517  1.3389707304295346  -8.646949884465762  23.81554338096691  34.70409837757329  -23.704402854127487  17.065543589038146  0.000000
0.99  0.000000  0.000000  0.000000  -36.32813288715646  8.7277867456678  24.79604906940003  60.52564627023192  1.554096955971033  -8.48602922328546  23.89285948021876  35.008420044697964  -23.953793995429518  16.90614904495038  0.000000
1.005  0.000000  0.000000  0.000000  -36.45847345253116  8.95008849335468  25.063859255152057  60.5352467080794  1.75608686172657  -8.319715303186168  23.96363157652227  35.30102257004956  -24.191336757501436  16.75452260459033  0.000000
1.02  0.000000  0.000000  0.000000  -36.58895213311458  9.170683728712905  25.329776799080722  60.54596738027237  1.9448305115072222  -8.14876254521474  24.025471237761646  35.58254816664818  -24.41517552340426  16.61105036986425  0.000000
1.035  0.000000  0.000000  0.000000  -36.72039558325585  9.38849539572931  25.594145980982564  60.55816885996634  2.120532257461069  -7.974403361811716  24.075595095247692  35.85354907710751  -24.623186054204865  16.47609311131292  0.000000
1.05  0.000000  0.000000  0.000000  -36.85169371040776  9.60190787297159  25.856165158852747  60.57211015108988  2.2838798095878245  -7.798518296158247  24.11051762002813  36.11439375851132  -24.812468399514394  16.350446335857285  0.000000
1.065  0.000000  0.000000  0.000000  -36.98363203797703  9.810078230094962  26.11602987245757  60.588299710947496  2.4353958278563876  -7.622068884508437  24.12788434191031  36.365474955646285  -24.981125867606483  16.234464105142766  0.000000
1.08  0.000000  0.000000  0.000000  -37.11660845323796  10.012359408062697  26.37273694400563  60.60757950551929  2.5752094070357168  -7.4450306990950095  24.127317398034588  36.60770630353187  -25.129225235461178  16.127681115402797  0.000000
1.095  0.000000  0.000000  0.000000  -37.25170272341903  10.208290818898188  26.626208223901653  60.63029752416055  2.7039039990914295  -7.267978619124253  24.108362516655866  36.841660324905185  -25.256346844523208  16.030677413480912  0.000000
1.1099999999999999  0.000000  0.000000  0.000000  -37.38806487680891  10.39676606675677  26.87513760168093  60.65639158179951  2.8224322394355026  -7.092153824933337  24.070465866856793  37.06782868463137  -25.3618459836997  15.944087118164168  0.000000
1.125  0.000000  0.000000  0.000000  -37.52597468924672  10.57686431017877  27.1192668317555  60.6857684550178  2.931994600912651  -6.918911567080526  24.01332323512717  37.286418985012176  -25.44523755655155  15.868219586212073  0.000000
1.14  0.000000  0.000000  0.000000  -37.6644085663169  10.747096491912938  27.35690271505908  60.718298059444315  3.0341405552264074  -6.749720071308743  23.937387361455713  37.49763516323731  -25.506730210782372  15.803657411975  0.000000
1.155  0.000000  0.000000  0.000000  -37.804555594240696  10.906721145066214  27.587477916033386  60.75426061179206  3.1301397759379594  -6.585079026882466  23.84481895733723  37.70160288728071  -25.547655129550424  15.750160533881337  0.000000
1.17  0.000000  0.000000  0.000000  -37.9456143000413  11.054632055308327  27.809133757269624  60.793674509988776  3.2214278402666996  -6.426172677201319  23.73852597227859  37.89819319759038  -25.57022392226844  15.70781943617345  0.000000
1.185  0.000000  0.000000  0.000000  -38.08733481154582  11.189448974463268  28.021181087255044  60.83629441723262  3.309827883771615  -6.2746794626916085  23.62098385366667  38.08645836325444  -25.575903863878473  15.677259046165293  0.000000
1.2  0.000000  0.000000  0.000000  -38.22826852165384  11.309618393626804  28.2215292114238  60.88207992428783  3.3967724292493826  -6.1321089940046765  23.495875567954215  38.26552231158763  -25.56733767738579  15.658333306571961  0.000000
1.2149999999999999  0.000000  0.000000  0.000000  -38.367540954170465  11.413655992219365  28.409153817824656  60.93098165046011  3.4837570098972295  -6.000218259238198  23.36715177486867  38.43375574569193  -25.547489175882333  15.650633494550942  0.000000
1.23  0.000000  0.000000  0.000000  -38.50237470351618  11.498951416180894  28.581522499072808  60.98260799070855  3.572335430062872  -5.881466375049129  23.23915674510108  38.58926833630688  -25.51957191725276  15.653908031775183  0.000000
1.2449999999999999  0.000000  0.000000  0.000000  -38.632761285666966  11.56440938308582  28.737316890133886  61.03675388024537  3.663157224534546  -5.777762261602493  23.117972487838884  38.72925362617654  -25.48812618495796  15.668226534349786  0.000000
1.26  0.000000  0.000000  0.000000  -38.75682321654361  11.60834613122326  28.873927073266174  61.09294478052302  3.756353470082786  -5.691463302322168  23.009949113151283  38.850298121338284  -25.45779371141637  15.693471603924904  0.000000
1.275  0.000000  0.000000  0.000000  -38.87221273497876  11.628094862111652  28.98991663088369  61.150802536507264  3.8522600736843726  -5.626323416141602  22.92086791203176  38.947954519351164  -25.43295727039892  15.728946533380194  0.000000
